<svg xmlns="http://www.w3.org/2000/svg" xml:space="preserve" style="enable-background:new 0 0 1029.6 614" viewBox="0 0 1029.6 614"><path d="M12.5 198.6c.6-.7 1.5-.8 1.9-1.3 3.1-3.8 5.7-8.1 9.1-11.5 18.4-18.3 36.9-36.5 55.5-54.6 8.2-8 21.9-7.9 30.1 0 16.8 16.4 33.5 32.8 50.2 49.2 20.9 20.5 41.7 41.1 62.6 61.6 15.9 15.6 31.8 31.2 47.8 46.8 10.1 9.9 20.4 19.6 30.4 29.5 3.7 3.6 6.3 1.4 8.8-1.1 10.4-10.3 20.7-20.8 31.2-31.1 19.2-18.9 38.4-37.8 57.7-56.7 15.9-15.6 31.8-31.2 47.8-46.8 16.2-15.8 32.2-31.8 48.6-47.4 4.1-3.9 8.2-8.2 14.6-9.5 7.6-1.5 13.9-.1 19.3 5.2 15.1 14.7 30.2 29.5 45.3 44.3 16.9 16.5 33.7 33.1 50.6 49.6 15.8 15.5 31.6 30.9 47.4 46.4 15.6 15.2 31.1 30.5 46.7 45.7 4.2 4.1 6 4.1 10.3-.1 7.1-7 14.1-14.2 21.2-21.2 16.5-16.2 33-32.4 49.5-48.5 15.3-15 30.7-30 46-45 17-16.6 33.9-33.4 51-49.9 8.3-8 16.4-16.5 25.6-23.4 9-6.7 17.5-4.3 26.1 1.8.8.6 1.4 1.4 2.1 2.1 18.7 18.4 37.5 36.8 56.2 55.3 2.6 2.6 4.7 5.8 7.3 8.3.2 5.4.2 11 0 16.9-3.9 4-7.4 7.9-11.1 11.6-14.7 14.4-29.4 28.8-44.2 43.2-16.6 16.3-33.2 32.6-49.8 48.8-15.8 15.5-31.6 30.9-47.4 46.4-16 15.7-32.1 31.4-48.1 47.1-21.3 21-42.6 42-64 62.9-5.2 5-10.8 9.6-16.2 14.4-.2.2 0 .9 0 1.4-6 0-12 0-18.2-.2-2.9-2.5-5.9-4.5-8.5-7-16-15.5-31.9-31.1-47.8-46.7-16-15.7-32.1-31.4-48.1-47.1-16.6-16.3-33.3-32.5-49.9-48.9-13.6-13.5-27.1-27.1-40.7-40.6-4.6-4.6-7.1-4.6-11.6-.1-16.2 15.8-32.3 31.6-48.5 47.5-16.2 15.8-32.3 31.6-48.5 47.5-18.8 18.4-37.4 36.9-56.3 55.2-13.7 13.3-27.5 26.4-41.3 39.6-.1.1.2.7.3 1-6 0-12 0-18.2-.2-2.6-2.1-5.2-3.8-7.4-5.9-10.4-10-20.8-20-31.2-30.1-16.1-15.7-32.1-31.4-48.1-47.1-16.4-16.1-32.8-32.1-49.2-48.2-15.9-15.6-31.8-31.2-47.7-46.7-17.3-17-34.7-33.9-52-51-12.2-12.1-24.4-24.1-36.3-36.4-3.6-3.7-6.3-8.2-9.5-12.2-.2-.2-.9 0-1.4-.1v-12.7z" style="fill:#0D6EFD"/></svg>